# xmcd CD database file
#
# Track frame offsets:
#	150
#	20963
#	39587
#	65443
#	80298
#	106087
#	134380
#	147130
#	168722
#	184247
#	205930
#	238417
#	260109
#
# Disc length: 3664 seconds
#
# Revision: 0
# Processed by: cddbd v1.5.2PL0 Copyright (c) Steve Scherf et al.
# Submitted via: CDex 1.70beta2
#
DISCID=c40e4e0d
DTITLE=Martin Herzberg - Liebe and Tasten
DYEAR=2017
DGENRE=Jazz
TTITLE0=Etwas bleibt
TTITLE1=Janas Lied
TTITLE2=Laufen lernen
TTITLE3=Endlich
TTITLE4=Liebe and Tasten
TTITLE5=Sonne (Acoustic)
TTITLE6=Zwei
TTITLE7=Alles gesagt
TTITLE8=You
TTITLE9=Etwas bleibt (Acoustic)
TTITLE10=Sonne (Orchestral)
TTITLE11=Letzter Gedanke
TTITLE12=Augen zum Meer (Orchestral Bonus Track)
EXTD=YEAR: 2017
EXTT0=
EXTT1=
EXTT2=
EXTT3=
EXTT4=
EXTT5=
EXTT6=
EXTT7=
EXTT8=
EXTT9=
EXTT10=
EXTT11=
EXTT12=
PLAYORDER=
